G75*
%MOIN*%
%OFA0B0*%
%FSLAX25Y25*%
%IPPOS*%
%LPD*%
%AMOC8*
5,1,8,0,0,1.08239X$1,22.5*
%
%ADD10C,0.00400*%
%ADD11C,0.00600*%
D10*
X0028217Y0011490D02*
X0027617Y0012091D01*
X0027617Y0014493D01*
X0028217Y0015093D01*
X0029418Y0015093D01*
X0030019Y0014493D01*
X0030019Y0012091D01*
X0029418Y0011490D01*
X0028217Y0011490D01*
X0028818Y0012691D02*
X0030019Y0011490D01*
X0031300Y0011490D02*
X0033702Y0011490D01*
X0032501Y0011490D02*
X0032501Y0015093D01*
X0031300Y0013892D01*
X0044117Y0013591D02*
X0044717Y0012990D01*
X0045918Y0012990D01*
X0046519Y0013591D01*
X0047800Y0012990D02*
X0050202Y0012990D01*
X0049001Y0012990D02*
X0049001Y0016593D01*
X0047800Y0015392D01*
X0046519Y0015993D02*
X0045918Y0016593D01*
X0044717Y0016593D01*
X0044117Y0015993D01*
X0044117Y0013591D01*
X0057117Y0017091D02*
X0057717Y0016490D01*
X0058918Y0016490D01*
X0059519Y0017091D01*
X0060800Y0016490D02*
X0063202Y0018892D01*
X0063202Y0019493D01*
X0062602Y0020093D01*
X0061401Y0020093D01*
X0060800Y0019493D01*
X0059519Y0019493D02*
X0058918Y0020093D01*
X0057717Y0020093D01*
X0057117Y0019493D01*
X0057117Y0017091D01*
X0060800Y0016490D02*
X0063202Y0016490D01*
X0066800Y0017493D02*
X0066800Y0015091D01*
X0067401Y0014490D01*
X0068602Y0014490D01*
X0069202Y0015091D01*
X0069202Y0016292D01*
X0068001Y0016292D01*
X0066800Y0017493D02*
X0067401Y0018093D01*
X0068602Y0018093D01*
X0069202Y0017493D01*
X0070483Y0018093D02*
X0072885Y0014490D01*
X0072885Y0018093D01*
X0074166Y0018093D02*
X0075968Y0018093D01*
X0076568Y0017493D01*
X0076568Y0015091D01*
X0075968Y0014490D01*
X0074166Y0014490D01*
X0074166Y0018093D01*
X0070483Y0018093D02*
X0070483Y0014490D01*
X0050202Y0025490D02*
X0047800Y0025490D01*
X0049001Y0025490D02*
X0049001Y0029093D01*
X0047800Y0027892D01*
X0046519Y0027292D02*
X0045918Y0026691D01*
X0044117Y0026691D01*
X0044117Y0025490D02*
X0044117Y0029093D01*
X0045918Y0029093D01*
X0046519Y0028493D01*
X0046519Y0027292D01*
X0045318Y0026691D02*
X0046519Y0025490D01*
X0043400Y0038490D02*
X0039797Y0038490D01*
X0039797Y0040292D01*
X0040397Y0040892D01*
X0041598Y0040892D01*
X0042199Y0040292D01*
X0042199Y0038490D01*
X0042199Y0039691D02*
X0043400Y0040892D01*
X0043400Y0042173D02*
X0040998Y0044575D01*
X0040397Y0044575D01*
X0039797Y0043975D01*
X0039797Y0042774D01*
X0040397Y0042173D01*
X0043400Y0042173D02*
X0043400Y0044575D01*
X0021900Y0043975D02*
X0021900Y0042774D01*
X0021299Y0042173D01*
X0020098Y0043374D02*
X0020098Y0043975D01*
X0020699Y0044575D01*
X0021299Y0044575D01*
X0021900Y0043975D01*
X0020098Y0043975D02*
X0019498Y0044575D01*
X0018897Y0044575D01*
X0018297Y0043975D01*
X0018297Y0042774D01*
X0018897Y0042173D01*
X0018897Y0040892D02*
X0020098Y0040892D01*
X0020699Y0040292D01*
X0020699Y0038490D01*
X0021900Y0038490D02*
X0018297Y0038490D01*
X0018297Y0040292D01*
X0018897Y0040892D01*
X0020699Y0039691D02*
X0021900Y0040892D01*
X0016568Y0043490D02*
X0014166Y0043490D01*
X0014166Y0047093D01*
X0012885Y0047093D02*
X0010483Y0047093D01*
X0010483Y0043490D01*
X0012885Y0043490D01*
X0011684Y0045292D02*
X0010483Y0045292D01*
X0009202Y0044691D02*
X0009202Y0044091D01*
X0008602Y0043490D01*
X0007401Y0043490D01*
X0006800Y0044091D01*
X0007401Y0045292D02*
X0008602Y0045292D01*
X0009202Y0044691D01*
X0007401Y0045292D02*
X0006800Y0045892D01*
X0006800Y0046493D01*
X0007401Y0047093D01*
X0008602Y0047093D01*
X0009202Y0046493D01*
X0006600Y0047890D02*
X0017649Y0047890D01*
X0015367Y0058490D02*
X0015367Y0060292D01*
X0016568Y0061493D01*
X0016568Y0062093D01*
X0017649Y0062890D02*
X0006600Y0062890D01*
X0006800Y0062093D02*
X0008602Y0062093D01*
X0009202Y0061493D01*
X0009202Y0060292D01*
X0008602Y0059691D01*
X0006800Y0059691D01*
X0006800Y0058490D02*
X0006800Y0062093D01*
X0008001Y0059691D02*
X0009202Y0058490D01*
X0010483Y0058490D02*
X0012285Y0058490D01*
X0012885Y0059091D01*
X0012885Y0061493D01*
X0012285Y0062093D01*
X0010483Y0062093D01*
X0010483Y0058490D01*
X0014166Y0061493D02*
X0015367Y0060292D01*
X0014166Y0061493D02*
X0014166Y0062093D01*
X0027117Y0061091D02*
X0027717Y0060490D01*
X0028918Y0060490D01*
X0029519Y0061091D01*
X0029519Y0063493D01*
X0028918Y0064093D01*
X0027717Y0064093D01*
X0027117Y0063493D01*
X0027117Y0061091D01*
X0028318Y0061691D02*
X0029519Y0060490D01*
X0030800Y0060490D02*
X0033202Y0062892D01*
X0033202Y0063493D01*
X0032602Y0064093D01*
X0031401Y0064093D01*
X0030800Y0063493D01*
X0030800Y0060490D02*
X0033202Y0060490D01*
X0044617Y0062091D02*
X0045217Y0061490D01*
X0046418Y0061490D01*
X0047019Y0062091D01*
X0047019Y0065093D01*
X0048300Y0064493D02*
X0048901Y0065093D01*
X0050102Y0065093D01*
X0050702Y0064493D01*
X0050702Y0063892D01*
X0050102Y0063292D01*
X0050702Y0062691D01*
X0050702Y0062091D01*
X0050102Y0061490D01*
X0048901Y0061490D01*
X0048300Y0062091D01*
X0049501Y0063292D02*
X0050102Y0063292D01*
X0044617Y0062091D02*
X0044617Y0065093D01*
X0060617Y0065093D02*
X0060617Y0062091D01*
X0061217Y0061490D01*
X0062418Y0061490D01*
X0063019Y0062091D01*
X0063019Y0065093D01*
X0064300Y0064493D02*
X0064901Y0065093D01*
X0066102Y0065093D01*
X0066702Y0064493D01*
X0066702Y0063892D01*
X0064300Y0061490D01*
X0066702Y0061490D01*
X0070483Y0033093D02*
X0070483Y0031292D01*
X0071684Y0031892D01*
X0072285Y0031892D01*
X0072885Y0031292D01*
X0072885Y0030091D01*
X0072285Y0029490D01*
X0071084Y0029490D01*
X0070483Y0030091D01*
X0069202Y0031292D02*
X0066800Y0031292D01*
X0068001Y0032493D02*
X0068001Y0030091D01*
X0070483Y0033093D02*
X0072885Y0033093D01*
X0074166Y0033093D02*
X0074166Y0030691D01*
X0075367Y0029490D01*
X0076568Y0030691D01*
X0076568Y0033093D01*
X0017649Y0032890D02*
X0006600Y0032890D01*
X0006800Y0032093D02*
X0008001Y0030892D01*
X0009202Y0032093D01*
X0009202Y0028490D01*
X0006800Y0028490D02*
X0006800Y0032093D01*
X0010483Y0032093D02*
X0012885Y0032093D01*
X0011684Y0032093D02*
X0011684Y0028490D01*
X0014166Y0028490D02*
X0014166Y0032093D01*
X0015968Y0032093D01*
X0016568Y0031493D01*
X0016568Y0030292D01*
X0015968Y0029691D01*
X0014166Y0029691D01*
X0015367Y0029691D02*
X0016568Y0028490D01*
D11*
X0023100Y0030790D02*
X0023100Y0044790D01*
X0030100Y0044790D01*
X0030100Y0030790D01*
X0023100Y0030790D01*
X0029616Y0027889D02*
X0033198Y0027889D01*
X0033198Y0024849D01*
X0028002Y0023471D02*
X0028002Y0021109D01*
X0033198Y0019731D02*
X0033198Y0016692D01*
X0029616Y0016692D01*
X0040600Y0017790D02*
X0040600Y0024790D01*
X0054600Y0024790D01*
X0054600Y0017790D01*
X0040600Y0017790D01*
X0056600Y0021290D02*
X0056600Y0035290D01*
X0063600Y0035290D01*
X0063600Y0021290D01*
X0056600Y0021290D01*
X0054600Y0030290D02*
X0054600Y0037290D01*
X0040600Y0037290D01*
X0040600Y0030290D01*
X0054600Y0030290D01*
X0038600Y0030790D02*
X0031600Y0030790D01*
X0031600Y0044790D01*
X0038600Y0044790D01*
X0038600Y0030790D01*
X0031584Y0047692D02*
X0028002Y0047692D01*
X0028002Y0050731D01*
X0033198Y0052109D02*
X0033198Y0054471D01*
X0028002Y0055849D02*
X0028002Y0058889D01*
X0031584Y0058889D01*
X0042502Y0055979D02*
X0042502Y0049601D01*
X0043966Y0051290D02*
X0043968Y0051329D01*
X0043974Y0051368D01*
X0043984Y0051406D01*
X0043997Y0051443D01*
X0044014Y0051478D01*
X0044034Y0051512D01*
X0044058Y0051543D01*
X0044085Y0051572D01*
X0044114Y0051598D01*
X0044146Y0051621D01*
X0044180Y0051641D01*
X0044216Y0051657D01*
X0044253Y0051669D01*
X0044292Y0051678D01*
X0044331Y0051683D01*
X0044370Y0051684D01*
X0044409Y0051681D01*
X0044448Y0051674D01*
X0044485Y0051663D01*
X0044522Y0051649D01*
X0044557Y0051631D01*
X0044590Y0051610D01*
X0044621Y0051585D01*
X0044649Y0051558D01*
X0044674Y0051528D01*
X0044696Y0051495D01*
X0044715Y0051461D01*
X0044730Y0051425D01*
X0044742Y0051387D01*
X0044750Y0051349D01*
X0044754Y0051310D01*
X0044754Y0051270D01*
X0044750Y0051231D01*
X0044742Y0051193D01*
X0044730Y0051155D01*
X0044715Y0051119D01*
X0044696Y0051085D01*
X0044674Y0051052D01*
X0044649Y0051022D01*
X0044621Y0050995D01*
X0044590Y0050970D01*
X0044557Y0050949D01*
X0044522Y0050931D01*
X0044485Y0050917D01*
X0044448Y0050906D01*
X0044409Y0050899D01*
X0044370Y0050896D01*
X0044331Y0050897D01*
X0044292Y0050902D01*
X0044253Y0050911D01*
X0044216Y0050923D01*
X0044180Y0050939D01*
X0044146Y0050959D01*
X0044114Y0050982D01*
X0044085Y0051008D01*
X0044058Y0051037D01*
X0044034Y0051068D01*
X0044014Y0051102D01*
X0043997Y0051137D01*
X0043984Y0051174D01*
X0043974Y0051212D01*
X0043968Y0051251D01*
X0043966Y0051290D01*
X0046045Y0049601D02*
X0046415Y0049601D01*
X0049785Y0049601D02*
X0050155Y0049601D01*
X0053698Y0049601D02*
X0053698Y0055979D01*
X0050155Y0055979D02*
X0046045Y0055979D01*
X0058502Y0055979D02*
X0058502Y0049601D01*
X0059966Y0051290D02*
X0059968Y0051329D01*
X0059974Y0051368D01*
X0059984Y0051406D01*
X0059997Y0051443D01*
X0060014Y0051478D01*
X0060034Y0051512D01*
X0060058Y0051543D01*
X0060085Y0051572D01*
X0060114Y0051598D01*
X0060146Y0051621D01*
X0060180Y0051641D01*
X0060216Y0051657D01*
X0060253Y0051669D01*
X0060292Y0051678D01*
X0060331Y0051683D01*
X0060370Y0051684D01*
X0060409Y0051681D01*
X0060448Y0051674D01*
X0060485Y0051663D01*
X0060522Y0051649D01*
X0060557Y0051631D01*
X0060590Y0051610D01*
X0060621Y0051585D01*
X0060649Y0051558D01*
X0060674Y0051528D01*
X0060696Y0051495D01*
X0060715Y0051461D01*
X0060730Y0051425D01*
X0060742Y0051387D01*
X0060750Y0051349D01*
X0060754Y0051310D01*
X0060754Y0051270D01*
X0060750Y0051231D01*
X0060742Y0051193D01*
X0060730Y0051155D01*
X0060715Y0051119D01*
X0060696Y0051085D01*
X0060674Y0051052D01*
X0060649Y0051022D01*
X0060621Y0050995D01*
X0060590Y0050970D01*
X0060557Y0050949D01*
X0060522Y0050931D01*
X0060485Y0050917D01*
X0060448Y0050906D01*
X0060409Y0050899D01*
X0060370Y0050896D01*
X0060331Y0050897D01*
X0060292Y0050902D01*
X0060253Y0050911D01*
X0060216Y0050923D01*
X0060180Y0050939D01*
X0060146Y0050959D01*
X0060114Y0050982D01*
X0060085Y0051008D01*
X0060058Y0051037D01*
X0060034Y0051068D01*
X0060014Y0051102D01*
X0059997Y0051137D01*
X0059984Y0051174D01*
X0059974Y0051212D01*
X0059968Y0051251D01*
X0059966Y0051290D01*
X0062045Y0049601D02*
X0062415Y0049601D01*
X0065785Y0049601D02*
X0066155Y0049601D01*
X0069698Y0049601D02*
X0069698Y0055979D01*
X0066155Y0055979D02*
X0062045Y0055979D01*
M02*
