%
M48
M72
T01C0.0157
%
T01
X1160Y1329
X2160Y1329
X3160Y1329
X4160Y1329
X5160Y1329
X6160Y1329
X7160Y1329
X6910Y3079
X7410Y3079
X6010Y3829
X5160Y4229
X5610Y4779
X4410Y4029
X4810Y5829
X5160Y6329
X4160Y6329
X3160Y6329
X2160Y6329
X1160Y6329
X1160Y4579
X1160Y3079
X6160Y6329
X6410Y5829
X7160Y6329
X7410Y5579
X7410Y4579
M30
