G75*
%MOIN*%
%OFA0B0*%
%FSLAX25Y25*%
%IPPOS*%
%LPD*%
%AMOC8*
5,1,8,0,0,1.08239X$1,22.5*
%
%ADD10C,0.00500*%
D10*
X0007341Y0018540D02*
X0006591Y0019291D01*
X0006591Y0020042D01*
X0007341Y0020792D01*
X0009593Y0020792D01*
X0009593Y0019291D01*
X0008842Y0018540D01*
X0007341Y0018540D01*
X0009593Y0020792D02*
X0008092Y0022293D01*
X0006591Y0023044D01*
X0012696Y0023044D02*
X0012696Y0018540D01*
X0014197Y0018540D02*
X0011194Y0018540D01*
X0014197Y0021543D02*
X0012696Y0023044D01*
X0015748Y0021543D02*
X0015748Y0020792D01*
X0016499Y0020792D01*
X0016499Y0021543D01*
X0015748Y0021543D01*
X0018100Y0022293D02*
X0018851Y0023044D01*
X0020352Y0023044D01*
X0021103Y0022293D01*
X0021103Y0021543D01*
X0020352Y0020792D01*
X0018100Y0020792D01*
X0018100Y0019291D02*
X0018100Y0022293D01*
X0018100Y0019291D02*
X0018851Y0018540D01*
X0020352Y0018540D01*
X0021103Y0019291D01*
X0022704Y0018540D02*
X0025707Y0018540D01*
X0024206Y0018540D02*
X0024206Y0023044D01*
X0025707Y0021543D01*
X0031912Y0021543D02*
X0032663Y0020792D01*
X0031912Y0020042D01*
X0031912Y0019291D01*
X0032663Y0018540D01*
X0034164Y0018540D01*
X0034915Y0019291D01*
X0036516Y0018540D02*
X0039519Y0018540D01*
X0036516Y0021543D01*
X0036516Y0022293D01*
X0037267Y0023044D01*
X0038768Y0023044D01*
X0039519Y0022293D01*
X0041120Y0022293D02*
X0044123Y0019291D01*
X0043372Y0018540D01*
X0041871Y0018540D01*
X0041120Y0019291D01*
X0041120Y0022293D01*
X0041871Y0023044D01*
X0043372Y0023044D01*
X0044123Y0022293D01*
X0044123Y0019291D01*
X0045724Y0018540D02*
X0048726Y0018540D01*
X0045724Y0021543D01*
X0045724Y0022293D01*
X0046475Y0023044D01*
X0047976Y0023044D01*
X0048726Y0022293D01*
X0050328Y0023044D02*
X0053330Y0018540D01*
X0054932Y0019291D02*
X0055682Y0018540D01*
X0057184Y0018540D01*
X0057934Y0019291D01*
X0054932Y0022293D01*
X0054932Y0019291D01*
X0057934Y0019291D02*
X0057934Y0022293D01*
X0057184Y0023044D01*
X0055682Y0023044D01*
X0054932Y0022293D01*
X0059536Y0018540D02*
X0062538Y0018540D01*
X0061037Y0018540D02*
X0061037Y0023044D01*
X0062538Y0021543D01*
X0064140Y0023044D02*
X0067142Y0018540D01*
X0068744Y0019291D02*
X0068744Y0022293D01*
X0069494Y0023044D01*
X0070995Y0023044D01*
X0071746Y0022293D01*
X0071746Y0021543D01*
X0070995Y0020792D01*
X0068744Y0020792D01*
X0068744Y0019291D02*
X0069494Y0018540D01*
X0070995Y0018540D01*
X0071746Y0019291D01*
X0073347Y0018540D02*
X0076350Y0018540D01*
X0074849Y0018540D02*
X0074849Y0023044D01*
X0076350Y0021543D01*
X0076350Y0038540D02*
X0074098Y0038540D01*
X0073347Y0039291D01*
X0073347Y0040042D01*
X0074098Y0040792D01*
X0076350Y0040792D01*
X0074098Y0040792D02*
X0073347Y0041543D01*
X0073347Y0042293D01*
X0074098Y0043044D01*
X0076350Y0043044D01*
X0076350Y0038540D01*
X0071746Y0042293D02*
X0070245Y0040792D01*
X0070245Y0038540D01*
X0070245Y0040792D02*
X0068744Y0042293D01*
X0068744Y0043044D01*
X0071746Y0043044D02*
X0071746Y0042293D01*
X0071746Y0048540D02*
X0071746Y0053044D01*
X0070245Y0051543D01*
X0068744Y0053044D01*
X0068744Y0048540D01*
X0067142Y0048540D02*
X0065641Y0048540D01*
X0066392Y0048540D02*
X0066392Y0053044D01*
X0067142Y0053044D02*
X0065641Y0053044D01*
X0064073Y0052293D02*
X0064073Y0049291D01*
X0063322Y0048540D01*
X0061821Y0048540D01*
X0061070Y0049291D01*
X0061070Y0050792D01*
X0062572Y0050792D01*
X0064073Y0052293D02*
X0063322Y0053044D01*
X0061821Y0053044D01*
X0061070Y0052293D01*
X0059469Y0051543D02*
X0057968Y0053044D01*
X0056466Y0051543D01*
X0056466Y0048540D01*
X0056466Y0050792D02*
X0059469Y0050792D01*
X0059469Y0051543D02*
X0059469Y0048540D01*
X0060286Y0043044D02*
X0059536Y0042293D01*
X0059536Y0040792D01*
X0060286Y0040042D01*
X0062538Y0040042D01*
X0062538Y0038540D02*
X0062538Y0043044D01*
X0060286Y0043044D01*
X0053330Y0043044D02*
X0053330Y0038540D01*
X0050328Y0038540D02*
X0050328Y0043044D01*
X0051829Y0041543D01*
X0053330Y0043044D01*
X0048726Y0043044D02*
X0048726Y0039291D01*
X0047976Y0038540D01*
X0046475Y0038540D01*
X0045724Y0039291D01*
X0045724Y0043044D01*
X0044123Y0043044D02*
X0044123Y0038540D01*
X0041120Y0038540D01*
X0039519Y0038540D02*
X0039519Y0043044D01*
X0039519Y0040792D02*
X0036516Y0040792D01*
X0034915Y0039291D02*
X0034164Y0038540D01*
X0032663Y0038540D01*
X0031912Y0039291D01*
X0031912Y0042293D01*
X0032663Y0043044D01*
X0034164Y0043044D01*
X0034915Y0042293D01*
X0034915Y0039291D01*
X0036516Y0038540D02*
X0036516Y0043044D01*
X0030311Y0043044D02*
X0030311Y0038540D01*
X0027308Y0038540D01*
X0025707Y0038540D02*
X0022704Y0038540D01*
X0021103Y0038540D02*
X0021103Y0041543D01*
X0019602Y0043044D01*
X0018100Y0041543D01*
X0018100Y0038540D01*
X0016499Y0038540D02*
X0016499Y0043044D01*
X0013496Y0038540D01*
X0013496Y0043044D01*
X0011895Y0043044D02*
X0009643Y0043044D01*
X0008892Y0042293D01*
X0008892Y0039291D01*
X0009643Y0038540D01*
X0011895Y0038540D01*
X0011895Y0043044D01*
X0018100Y0040792D02*
X0021103Y0040792D01*
X0025707Y0043044D02*
X0025707Y0038540D01*
X0031433Y0033044D02*
X0031433Y0028540D01*
X0032934Y0028540D02*
X0029932Y0028540D01*
X0032934Y0031543D02*
X0031433Y0033044D01*
X0039140Y0033044D02*
X0039140Y0030042D01*
X0040641Y0028540D01*
X0042142Y0030042D01*
X0042142Y0033044D01*
X0043744Y0033044D02*
X0046746Y0033044D01*
X0046746Y0028540D01*
X0043744Y0028540D01*
X0045245Y0030792D02*
X0046746Y0030792D01*
X0048347Y0030792D02*
X0048347Y0032293D01*
X0049098Y0033044D01*
X0051350Y0033044D01*
X0051350Y0028540D01*
X0051350Y0030042D02*
X0049098Y0030042D01*
X0048347Y0030792D01*
X0049849Y0030042D02*
X0048347Y0028540D01*
X0034915Y0022293D02*
X0034164Y0023044D01*
X0032663Y0023044D01*
X0031912Y0022293D01*
X0031912Y0021543D01*
X0032663Y0020792D02*
X0033413Y0020792D01*
X0016499Y0019291D02*
X0016499Y0018540D01*
X0015748Y0018540D01*
X0015748Y0019291D01*
X0016499Y0019291D01*
X0015031Y0048540D02*
X0015031Y0053044D01*
X0016532Y0051543D01*
X0018034Y0053044D01*
X0018034Y0048540D01*
X0013430Y0049291D02*
X0012679Y0048540D01*
X0011178Y0048540D01*
X0010427Y0049291D01*
X0010427Y0052293D01*
X0011178Y0053044D01*
X0012679Y0053044D01*
X0013430Y0052293D01*
X0013430Y0049291D01*
X0008826Y0048540D02*
X0006574Y0048540D01*
X0005823Y0049291D01*
X0005823Y0052293D01*
X0006574Y0053044D01*
X0008826Y0053044D01*
X0008826Y0048540D01*
X0024239Y0052293D02*
X0024239Y0053044D01*
X0024239Y0052293D02*
X0025740Y0050792D01*
X0025740Y0048540D01*
X0025740Y0050792D02*
X0027241Y0052293D01*
X0027241Y0053044D01*
X0028843Y0052293D02*
X0029593Y0053044D01*
X0031845Y0053044D01*
X0031845Y0048540D01*
X0029593Y0048540D01*
X0028843Y0049291D01*
X0028843Y0052293D01*
X0033447Y0052293D02*
X0033447Y0050792D01*
X0034197Y0050042D01*
X0036449Y0050042D01*
X0034948Y0050042D02*
X0033447Y0048540D01*
X0036449Y0048540D02*
X0036449Y0053044D01*
X0034197Y0053044D01*
X0033447Y0052293D01*
X0038051Y0053044D02*
X0041053Y0050042D01*
X0040303Y0050792D02*
X0038051Y0048540D01*
X0041053Y0048540D02*
X0041053Y0053044D01*
X0042655Y0052293D02*
X0043405Y0053044D01*
X0044907Y0053044D01*
X0045657Y0052293D01*
X0045657Y0051543D01*
X0044907Y0050792D01*
X0043405Y0050792D01*
X0042655Y0050042D01*
X0042655Y0049291D01*
X0043405Y0048540D01*
X0044907Y0048540D01*
X0045657Y0049291D01*
X0047259Y0049291D02*
X0047259Y0052293D01*
X0048009Y0053044D01*
X0050261Y0053044D01*
X0050261Y0048540D01*
X0048009Y0048540D01*
X0047259Y0049291D01*
X0073347Y0048540D02*
X0073347Y0051543D01*
X0074849Y0053044D01*
X0076350Y0051543D01*
X0076350Y0048540D01*
X0076350Y0050792D02*
X0073347Y0050792D01*
M02*
